<?xml version="1.0" encoding="UTF-8"?>
<!DOCTYPE svg PUBLIC "-//W3C//DTD SVG 1.1//EN" "http://www.w3.org/Graphics/SVG/1.1/DTD/svg11.dtd">
<!-- Creator: CorelDRAW -->
<svg xmlns="http://www.w3.org/2000/svg" xml:space="preserve" width="35.8405mm" height="23.2628mm" version="1.1" style="shape-rendering:geometricPrecision; text-rendering:geometricPrecision; image-rendering:optimizeQuality; fill-rule:evenodd; clip-rule:evenodd"
viewBox="0 0 496.03 393.49"
 xmlns:xlink="http://www.w3.org/1999/xlink"
 xmlns:xodm="http://www.corel.com/coreldraw/odm/2003">
 <defs>
  <style type="text/css">
   <![CDATA[
    .fil1 {fill:#72C7D2;fill-rule:nonzero}
    .fil0 {fill:url(#id0)}
   ]]>
  </style>
  <linearGradient id="id0" gradientUnits="userSpaceOnUse" x1="-0" y1="195.85" x2="392.32" y2="195.85">
   <stop offset="0" style="stop-opacity:1; stop-color:#E5097F"/>
   <stop offset="0.129412" style="stop-opacity:1; stop-color:#FCEB0A"/>
   <stop offset="0.329412" style="stop-opacity:1; stop-color:#86C9B6"/>
   <stop offset="0.509804" style="stop-opacity:1; stop-color:#6DC6D9"/>
   <stop offset="0.701961" style="stop-opacity:1; stop-color:#444D9A"/>
   <stop offset="0.831373" style="stop-opacity:1; stop-color:#583085"/>
   <stop offset="1" style="stop-opacity:1; stop-color:#7E3287"/>
   <stop offset="1" style="stop-opacity:1; stop-color:#E63C24"/>
  </linearGradient>
 </defs>
 <g id="Слой_x0020_1">
  <metadata id="CorelCorpID_0Corel-Layer"/>
  <path class="fil0" d="M308.63 57.67c36.04,29.28 60.4,72.38 65.02,121.22l-87.05 0c-3.07,0.29 -5.18,1.93 -6.14,5.49l-15.8 58.97 -32.17 -120.07c-1.69,-4.62 -11.4,-7.85 -14.42,0l-27.54 102.8 -6.42 -23.98c-0.4,-2.49 -2.72,-6.42 -7.03,-6.36l-21.26 0 -32.86 -122.62c-2.28,-5.28 -12.94,-6.82 -14.84,2.45l0 175.73 -17.45 -65.14c-0.56,-4.26 -3.96,-7.05 -7.6,-7.6l-33.84 0c-10.46,3.94 -6.89,15.35 0.43,16.13l26.43 0 32.08 119.4c3.99,10.28 13.75,6.25 15.93,0l0 -175.83 18.05 67.11c1.49,5.22 4.73,5.96 7.19,6.1l20.79 0 13.31 49.69c4.3,5.94 11.34,4.94 14.54,0l27.51 -102.67 32.01 119.45c3.34,6.95 12.91,4.56 14.15,0l22.47 -83.85 81 -0.08c9.39,-0.25 17.89,-3.02 17.15,-15.25 -4.64,-53.94 -31.08,-101.65 -70.46,-134.28 -10.29,-3.98 -16.55,3.52 -13.19,13.19zm-128.26 334.03c13.94,0.18 13.45,-18.78 0,-18.63 -90.72,-8.15 -161.82,-84.38 -161.82,-177.23 0,-92.84 71.1,-169.08 161.82,-177.23 13.27,0.7 12.56,-18.77 0,-18.63 -100.98,8.2 -180.38,92.76 -180.38,195.85 0,103.1 79.39,187.65 180.38,195.85z"/>
  <path class="fil1" d="M182.45 391.71l0 -56.94 7.4 0 23.31 33.32 23.35 -33.32 7.4 0 0 56.94 -8.88 0 0 -40.94 -21.87 31.66 -21.83 -31.66 0 40.94 -8.88 0zm81.09 -56.81l8.88 0 0 36.46c0,5.46 1.3,9.15 3.87,11.06 2.57,1.91 7.69,2.87 15.36,2.87 7.69,0 12.84,-0.96 15.41,-2.87 2.57,-1.91 3.87,-5.6 3.87,-11.06l0 -36.46 8.88 0 0 38.78c0,6.99 -2.21,12.02 -6.62,15.14 -4.44,3.12 -11.63,4.67 -21.64,4.67 -9.95,0 -17.12,-1.53 -21.46,-4.6 -4.35,-3.07 -6.53,-8.13 -6.53,-15.2l0 -38.78zm70.9 49.53l4.33 -7.46c3.91,2.62 8.19,4.67 12.81,6.12 4.64,1.48 9.06,2.21 13.29,2.21 5.08,0 9.17,-1.02 12.29,-3.1 3.12,-2.07 4.67,-4.71 4.67,-7.94 0,-3.25 -1.43,-5.64 -4.28,-7.24 -2.84,-1.57 -7.33,-2.44 -13.47,-2.62 -10.38,-0.14 -17.5,-1.34 -21.37,-3.6 -3.87,-2.28 -5.8,-6.03 -5.8,-11.27 0,-4.89 2.12,-8.83 6.37,-11.81 4.26,-2.98 9.97,-4.46 17.14,-4.46 4.89,0 9.63,0.68 14.25,2.07 4.6,1.37 9.04,3.41 13.31,6.12l-4.48 7.37c-3.55,-2.39 -7.37,-4.23 -11.47,-5.55 -4.1,-1.3 -8.01,-1.96 -11.74,-1.96 -4.32,0 -7.81,0.75 -10.42,2.25 -2.62,1.52 -3.94,3.48 -3.94,5.92 0,2.53 1.32,4.33 3.96,5.39 2.64,1.07 7.24,1.59 13.77,1.59 9.08,0 15.91,1.52 20.53,4.6 4.62,3.07 6.94,7.62 6.94,13.68 0,5.37 -2.34,9.83 -7.03,13.41 -4.69,3.55 -10.77,5.33 -18.23,5.33 -5.53,0 -10.99,-0.8 -16.46,-2.37 -5.44,-1.57 -10.42,-3.8 -14.95,-6.69zm72.67 7.28l0 -57.08 9.01 0 0 57.08 -9.01 0zm88.92 -13.93c-3.23,5.1 -7.49,8.99 -12.77,11.68 -5.26,2.69 -11.27,4.03 -17.98,4.03 -9.99,0 -18.23,-2.82 -24.72,-8.49 -6.46,-5.67 -9.7,-12.86 -9.7,-21.55 0,-8.72 3.23,-15.91 9.7,-21.62 6.49,-5.71 14.73,-8.56 24.72,-8.56 6.24,0 11.88,1.16 16.96,3.5 5.08,2.32 9.15,5.62 12.27,9.88l-7.08 4.92c-2.34,-3.23 -5.44,-5.74 -9.29,-7.49 -3.85,-1.75 -8.13,-2.62 -12.84,-2.62 -7.31,0 -13.34,2.07 -18.12,6.24 -4.78,4.14 -7.17,9.35 -7.17,15.61 0,6.26 2.39,11.47 7.19,15.61 4.8,4.16 10.83,6.24 18.09,6.24 5.05,0 9.54,-1 13.41,-2.98 3.87,-2 7.26,-5.1 10.2,-9.31l7.12 4.92z"/>
 </g>
</svg>
